<?xml version="1.0" encoding="UTF-8"?><svg id="Layer_1" xmlns="http://www.w3.org/2000/svg" width="16" height="16" viewBox="0 0 16 16"><path d="M4.44,0C1.99,0,0,1.99,0,4.44v7.11c0,2.45,1.99,4.44,4.44,4.44h7.11c2.45,0,4.44-1.99,4.44-4.44V4.44c0-2.45-1.99-4.44-4.44-4.44H4.44ZM13.33,1.78c.49,0,.89,.4,.89,.89s-.4,.89-.89,.89-.89-.4-.89-.89,.4-.89,.89-.89Zm-5.33,1.78c2.45,0,4.44,1.99,4.44,4.44s-1.99,4.44-4.44,4.44-4.44-1.99-4.44-4.44,1.99-4.44,4.44-4.44Zm0,1.78c-1.47,0-2.67,1.19-2.67,2.67s1.19,2.67,2.67,2.67,2.67-1.19,2.67-2.67-1.19-2.67-2.67-2.67Z"/></svg>